OpenSim_Sub06_CSBaseline_GRF.mot
version=1
nRows=35
nColumns=19
inDegrees=no
endheader
time	lFx	lFy	lFz	lCOPx	lCOPy	lCOPz	rFx	rFy	rFz	rCOPx	rCOPy	rCOPz	lMx	lMy	lMz	rMx	rMy	rMz
0	2.89547837	330.75216736	35.39913600	0.61586825	0	-0.65883476	-6.25979553	351.43566635	-33.91910078	0.66253429	0	-0.33608804	0	-1.25269219	0	0	1.60913256	0
0.01000000	3.71321931	330.48056848	35.68593648	0.61528335	0	-0.65820728	-4.54975934	351.57194021	-33.90394588	0.66300785	0	-0.33629640	0	-1.20309688	0	0	1.61629657	0.00000000
0.02000000	4.11519520	330.57303968	35.83766985	0.61504577	0	-0.65788489	-3.64706933	351.58761108	-33.87228956	0.66315980	0	-0.33642585	0	-1.16642675	0	0	1.62644588	0.00000000
0.03000000	4.21244651	330.97961471	35.90896326	0.61511355	0	-0.65780046	-3.37760673	351.65565804	-33.82526664	0.66311902	0	-0.33648168	0	-1.13821709	0	0	1.62408762	-0.00000000
0.04000000	4.17969531	331.52691312	35.94725949	0.61519366	0	-0.65778407	-3.40818802	351.80252896	-33.78370291	0.66300926	0	-0.33650305	0	-1.12029330	0	0	1.61944269	0
0.05000000	4.14537334	332.09952415	35.98337287	0.61511981	0	-0.65773659	-3.52626907	351.94487293	-33.76288391	0.66290631	0	-0.33650350	0	-1.10854852	0	0	1.62479012	0.00000000
0.06000000	4.15119090	332.64189877	36.03303466	0.61495680	0	-0.65767153	-3.63867217	352.09570770	-33.76048473	0.66285305	0	-0.33652643	0	-1.10197321	0	0	1.63116290	0
0.07000000	4.18513087	333.07637176	36.08041425	0.61480708	0	-0.65762964	-3.69904449	352.25860523	-33.76120451	0.66281710	0	-0.33656787	0	-1.10051795	0	0	1.63418956	0
0.08000000	4.20997853	333.41856857	36.10996613	0.61462451	0	-0.65762574	-3.72914273	352.39567017	-33.75979721	0.66264485	0	-0.33660349	0	-1.09310819	0	0	1.64519403	0.00000000
0.09000000	4.21936310	333.70027933	36.11796859	0.61436202	0	-0.65764345	-3.76884843	352.44176638	-33.75169327	0.66234025	0	-0.33664182	0	-1.07892293	0	0	1.66103002	0.00000000
0.10000000	4.22560252	333.87690670	36.08073555	0.61411573	0	-0.65769566	-3.80599619	352.45853242	-33.74850044	0.66216541	0	-0.33670204	0	-1.06299758	0	0	1.66306105	0.00000000
0.11000000	4.23013509	333.89968163	36.02023139	0.61398485	0	-0.65773611	-3.82676086	352.47334914	-33.75362074	0.66210229	0	-0.33676947	0	-1.05292058	0	0	1.66039644	0.00000000
0.12000000	4.23666817	333.77085884	35.96984879	0.61387523	0	-0.65772477	-3.84977463	352.38165767	-33.74273391	0.66190795	0	-0.33681230	0	-1.05603091	0	0	1.66011256	0
0.13000000	4.24283812	333.51789740	35.93980061	0.61368492	0	-0.65766027	-3.87075444	352.16833829	-33.70271735	0.66151751	0	-0.33681810	0	-1.07449991	0	0	1.65804865	0
0.14000000	4.25437025	333.23916759	35.92411800	0.61351260	0	-0.65754669	-3.86501751	351.87096650	-33.64097669	0.66105977	0	-0.33681750	0	-1.08110566	0	0	1.65294301	0.00000000
0.15000000	4.26228194	333.00312547	35.92176021	0.61342548	0	-0.65739573	-3.81852587	351.52285530	-33.57516710	0.66074846	0	-0.33686096	0	-1.07466991	0	0	1.63999099	0
0.16000000	4.27433275	332.82762314	35.91480384	0.61329543	0	-0.65725783	-3.73929888	351.17378200	-33.51616401	0.66066214	0	-0.33694351	0	-1.06678136	0	0	1.60863696	0.00000000
0.17000000	4.29757700	332.66417840	35.90667462	0.61300842	0	-0.65711642	-3.63795852	350.86957042	-33.47164936	0.66067260	0	-0.33703951	0	-1.05496775	0	0	1.57197144	0
0.18000000	4.34021110	332.51912974	35.90781181	0.61265658	0	-0.65699382	-3.53102074	350.67507356	-33.44574237	0.66063658	0	-0.33712077	0	-1.04912997	0	0	1.54335901	0
0.19000000	4.37480605	332.44019766	35.88882783	0.61240781	0	-0.65695161	-3.45748816	350.58522478	-33.45228506	0.66043147	0	-0.33715395	0	-1.04481774	0	0	1.52947664	0
0.20000000	4.38553299	332.40393434	35.84470203	0.61226876	0	-0.65694312	-3.42646695	350.53492676	-33.48426366	0.66016419	0	-0.33715102	0	-1.02594122	0	0	1.51614691	0
0.21000000	4.40194446	332.35206944	35.80741839	0.61209315	0	-0.65686536	-3.42737716	350.50787884	-33.51205880	0.65991844	0	-0.33714425	0	-1.01225233	0	0	1.49440820	0.00000000
0.22000000	4.44001167	332.27940678	35.77397696	0.61181873	0	-0.65674931	-3.44589048	350.57514370	-33.52659598	0.65970999	0	-0.33710530	0	-1.01550108	0	0	1.46372946	0
0.23000000	4.50561804	332.16206363	35.70557379	0.61152894	0	-0.65665194	-3.47572839	350.74932155	-33.56627568	0.65959964	0	-0.33703321	0	-1.01138469	0	0	1.42929862	-0.00000000
0.24000000	4.58465518	331.96376706	35.62532383	0.61120457	0	-0.65656573	-3.50145787	350.98451983	-33.66266414	0.65960731	0	-0.33697820	0	-1.00950657	0	0	1.39146224	0
0.25000000	4.66210111	331.70625586	35.54303742	0.61088893	0	-0.65648879	-3.52100758	351.20902678	-33.79297867	0.65963439	0	-0.33697626	0	-1.01197854	0	0	1.35503840	0
0.26000000	4.72727904	331.39167657	35.43380459	0.61061755	0	-0.65644358	-3.53407993	351.37288567	-33.91830371	0.65959435	0	-0.33703147	0	-1.00574858	0	0	1.32667976	0.00000000
0.27000000	4.79307065	331.08079859	35.33303902	0.61030862	0	-0.65640126	-3.54574461	351.46171149	-34.01214582	0.65940160	0	-0.33711624	0	-1.00808223	0	0	1.31419737	0.00000000
0.28000000	4.86875128	330.83097135	35.27363045	0.60988679	0	-0.65633311	-3.56160682	351.45929497	-34.06897560	0.65897629	0	-0.33719303	0	-1.02025046	0	0	1.31414617	0
0.29000000	4.95794891	330.63146833	35.23476363	0.60944847	0	-0.65622700	-3.59210067	351.37547439	-34.07377036	0.65847405	0	-0.33724485	0	-1.01648964	0	0	1.31221239	0
0.30000000	5.07721199	330.48025987	35.20062525	0.60907145	0	-0.65609776	-3.63749879	351.19283886	-34.03563599	0.65808833	0	-0.33729996	0	-1.00455055	0	0	1.30339303	0.00000000
0.31000000	5.21645261	330.35624606	35.14983717	0.60868874	0	-0.65598703	-3.66761502	350.89784923	-33.97512522	0.65777340	0	-0.33737982	0	-1.00316987	0	0	1.29376087	0
0.32000000	5.35424875	330.25232400	35.07712563	0.60825212	0	-0.65589038	-3.66083146	350.60835319	-33.89888181	0.65746114	0	-0.33748088	0	-1.00488051	0	0	1.29018427	0
0.33000000	5.47562911	330.18535336	35.01775551	0.60787936	0	-0.65576857	-3.62275324	350.47582686	-33.80867723	0.65718848	0	-0.33756754	0	-1.00610645	0	0	1.27353607	0
0.34000000	5.59258507	330.17615250	35.00247700	0.60753366	0	-0.65559637	-3.57533484	350.49248497	-33.72011032	0.65698144	0	-0.33762907	0	-1.01565811	0	0	1.23262930	-0.00000000
